<svg xmlns="http://www.w3.org/2000/svg" fill="none" viewBox="0 0 24 24"><g clip-path="url(#a)"><path fill="#000" d="M12.2187 0C5.47644 0 0 5.3784 0 12s5.47644 12 12.2187 12c5.269 0 8.4855-2.3804 10.1602-5.3315 1.6747-2.9511 1.8864-6.4178 1.3779-8.78807l-.0996-.4076h-.415l-11.0235-.01631h-.5312v5.42938h6.0762c-.9173 2.0869-2.7849 3.5217-5.545 3.5217-3.60664 0-6.52437-2.8655-6.52437-6.4076 0-3.54212 2.91773-6.40761 6.52437-6.40761 1.6208 0 3.0921.589 4.2334 1.54891l.3819.30979 3.6357-3.57066.3819-.3913-.3985-.3587C18.2825 1.18818 15.3855 0 12.2187 0Zm0 1.04348c2.6957 0 5.1279.96807 7.0557 2.52717l-2.5566 2.51087c-1.2638-.92731-2.7995-1.53261-4.4991-1.53261-4.18147 0-7.58687 3.34443-7.58687 7.45109 0 4.1067 3.4054 7.4511 7.58687 7.4511 3.4801 0 5.9828-2.0951 6.8731-4.9402l.2158-.6685H12.75V10.5l10.0107.0163c.3528 2.1053.1183 5.1277-1.3115 7.6467-1.519 2.674-4.279 4.7935-9.2305 4.7935-6.16951 0-11.1562-4.8994-11.1562-10.9565 0-6.05707 4.98669-10.95652 11.1562-10.95652Z"/></g><defs><clipPath id="a"><path fill="#fff" d="M0 0h24v24H0z"/></clipPath></defs></svg>