<svg xmlns="http://www.w3.org/2000/svg" fill="none" viewBox="0 0 24 24"><g clip-path="url(#a)"><path fill="#000" d="M12 0C5.37903 0 0 5.38764 0 12.0192c0 6.0201 4.4332 11.0021 10.207 11.8709l.6265.095V14.514H7.99858v-1.9229h2.83492v-2.5534c0-1.57237.3767-2.60796 1.0003-3.25769.6236-.64972 1.5451-.97741 2.8274-.97741 1.0254 0 1.4243.06222 1.8036.10883v1.5739H15.13c-.7574 0-1.3788.42326-1.7014.98702-.3225.56376-.4229 1.23688-.4229 1.92285v2.1949h3.3398l-.2972 1.9228h-3.0426V24l.6189-.0843C19.4806 23.1202 24 18.0981 24 12.0192 24 5.38764 18.621 0 12 0Zm0 1.09266c6.0314 0 10.9091 4.8855 10.9091 10.92654 0 5.3157-3.7987 9.6874-8.8125 10.6715v-7.0852h2.8871l.6338-4.1081h-3.5209v-1.1022c0-.56684.1035-1.07469.278-1.37973.1746-.30503.3428-.43749.7554-.43749h2.4258v-3.6557l-.4731-.06402c-.3271-.04434-1.074-.14832-2.4215-.14832-1.4744 0-2.74.40229-3.6136 1.31247-.8736.91017-1.30506 2.26545-1.30506 4.01529v1.4608H6.90767v4.1081h2.83487v7.05c-4.93327-1.0467-8.65163-5.3793-8.65163-10.6374C1.09091 5.97816 5.9686 1.09266 12 1.09266Z"/></g><defs><clipPath id="a"><path fill="#fff" d="M0 0h24v24H0z"/></clipPath></defs></svg>