<svg xmlns="http://www.w3.org/2000/svg" fill="none" viewBox="0 0 384 433">
  <g clip-path="url(#a)">
    <path fill="url(#b)" d="M341.124 81.0987c15.229 0 27.574-12.3453 27.574-27.5741 0-15.2288-12.345-27.5742-27.574-27.5742-15.229 0-27.574 12.3454-27.574 27.5742 0 15.2288 12.345 27.5741 27.574 27.5741Z" opacity=".99"/>
    <path fill="url(#c)" d="M337.478 75.8102c4.916.4049 8.814-1.7069 8.708-4.7168-.106-3.0098-4.177-5.778-9.092-6.1828-4.915-.4049-8.814 1.7069-8.707 4.7168.106 3.0098 4.176 5.778 9.091 6.1828Z" opacity=".99"/>
    <path fill="url(#d)" d="M317.801 63.8481c.666 2.7432 2.733 5.5499 4.618 6.2689 1.885.7191 2.873-.9217 2.207-3.6648-.666-2.7432-2.733-5.5499-4.618-6.2689-1.885-.7191-2.873.9217-2.207 3.6648Z" opacity=".99"/>
    <path fill="url(#e)" d="M362.243 58.6356c-1.52 2.3642-2.399 5.6962-1.962 7.4422.437 1.7461 2.024 1.2451 3.544-1.1191 1.52-2.3642 2.399-5.6962 1.962-7.4422-.437-1.7461-2.024-1.245-3.544 1.1191Z" opacity=".99"/>
    <path fill="url(#f)" d="M346.919 46.9814c-.947 4.8746 1.927 9.7894 6.42 10.9774 4.493 1.1881 8.903-1.8005 9.85-6.6751.947-4.8746-1.927-9.7894-6.42-10.9774-4.493-1.1881-8.903 1.8005-9.85 6.6751Z" opacity=".99"/>
    <path fill="url(#g)" d="M358.933 38.0446c.703 1.5153 2.088 2.9069 3.092 3.1084 1.005.2015 1.248-.8635.544-2.3787-.704-1.5153-2.088-2.9069-3.093-3.1084-1.004-.2015-1.247.8635-.543 2.3787Z" opacity=".99"/>
    <path fill="url(#h)" d="M324.061 42.7566c2.784-2.0183 5.177-5.5697 5.345-7.9322.167-2.3626-1.954-2.6417-4.738-.6234-2.785 2.0182-5.178 5.5696-5.345 7.9321-.168 2.3626 1.953 2.6417 4.738.6235Z" opacity=".99"/>
    <path fill="url(#i)" d="M101.305 231.311c44.174 0 79.983-35.81 79.983-79.983 0-44.174-35.809-79.9838-79.983-79.9838-44.1735 0-79.9833 35.8098-79.9833 79.9838 0 44.173 35.8098 79.983 79.9833 79.983Z" opacity=".99"/>
    <path fill="url(#j)" d="M119.578 105.951C68.9415 89.0797 18.6719 78.1289-20.1718 75.5071c-38.8436-2.6218-63.0794 3.3002-67.3756 16.4632-4.2962 13.1627 11.699 32.4887 44.4668 53.7257 32.7679 21.237 79.6242 42.646 130.2611 59.517 50.6365 16.871 100.9065 27.822 139.7505 30.443 38.843 2.622 63.079-3.3 67.376-16.463 4.296-13.163-11.699-32.489-44.467-53.726-32.768-21.237-79.625-42.646-130.262-59.516Zm-3.282 10.056c37.707 12.562 72.509 28.78 96.749 45.085 24.241 16.305 35.935 31.362 32.509 41.858-1.696 5.197-7.053 9.118-15.765 11.539-8.712 2.421-20.609 3.295-35.01 2.571-14.402-.723-31.027-3.03-48.925-6.788-17.899-3.758-36.721-8.894-55.3914-15.115-18.6706-6.22-36.8244-13.404-53.4247-21.14-16.6003-7.735-31.322-15.872-43.32468-23.946-12.00272-8.073-21.05122-15.925-26.62902-23.107-5.5778-7.182-7.5755-13.554-5.8792-18.751 3.4259-10.4957 21.6905-15.5712 50.7757-14.1096 29.0852 1.4615 66.6086 9.3406 104.3153 21.9036Z" opacity=".99"/>
    <path fill="url(#k)" d="M115.644 123.482C80.9671 112 46.4592 104.241 19.7118 101.913c-26.7474-2.3279-43.5432.966-46.6925 9.156-1.5594 4.055.2785 9.191 5.4087 15.114 5.1301 5.922 13.45211 12.516 24.49081 19.404 11.03869 6.888 24.57789 13.936 39.84459 20.74 15.2667 6.805 31.9619 13.234 49.1323 18.92 34.6773 11.482 69.1853 19.241 95.9323 21.569 26.747 2.328 43.543-.965 46.693-9.156 1.559-4.055-.279-9.191-5.409-15.114-5.13-5.922-13.452-12.516-24.491-19.404s-24.578-13.935-39.844-20.74c-15.267-6.805-31.962-13.234-49.133-18.92Zm-3.365 4.728c30.254 9.843 58.372 22.038 78.169 33.903 19.797 11.865 29.651 22.427 27.394 29.364-2.257 6.936-16.44 9.679-39.428 7.624-22.988-2.055-52.899-8.739-83.1531-18.582-30.2537-9.843-58.3718-22.038-78.1687-33.903-19.79687-11.865-29.6508-22.427-27.3941-29.364 2.25672-6.936 16.43929-9.679 39.4277-7.624 22.9884 2.055 52.8995 8.74 83.1532 18.582Z" opacity=".99"/>
    <g opacity=".334">
      <path fill="url(#l)" d="m81.364 88.0878 27.135 15.1992 12.538 9.414-19.137-4.555 7.224 6.724 19.106 10.291 31.504-1.001-4.743-8.361 21.022 7.699 3.612 13.635 1.719 14.824-29.748-9.21-6.702-8.023-34.037-4.623-7.111 12.271-29.8929-2.593 11.7421 10.92-31.2984-6.836-12.1243-6.837-19.6113 3.025 7.5976-24.185 16.8774-22.7801 13.5813-9.298 20.7465 4.2999Z"/>
      <path fill="url(#m)" d="m110.009 157.544 16.174 5.722 11.671 3.112 31.536.156 8.394 9.435-3.206 7.958-4.476 7.588-14.097-3.098-15.129-16.787-14.131-1.318-16.736-12.768Z"/>
      <path fill="url(#n)" d="m109.722 75.0732 21.927 8.2011 2.736 4.081 17.544 2.3081 11.186 10.6396-15.294.942-33.087-15.7733-10.915-1.2479-12.9561-8.7472 18.8591-.4034Z"/>
      <path fill="url(#o)" d="m47.1077 197.507 24.5382 8.495 11.7484 10.61-8.504-.358 4.8854 2.688 18.5527 3.177 5.2166 5.152-28.2421-3.995-21.567-8.98-14.976-13.374-6.9597-11.861-2.5019-6.355 17.8094 14.801Z"/>
    </g>
    <path fill="#FCFFE0" fill-opacity=".63109" d="M287.975 55.788c2.416 0 4.374-1.9587 4.374-4.3747 0-2.4161-1.958-4.3748-4.374-4.3748-2.416 0-4.375 1.9587-4.375 4.3748 0 2.416 1.959 4.3747 4.375 4.3747Z" opacity=".99"/>
    <path fill="#FCFFE0" fill-opacity=".338747" d="M281.794 69.61c1.596 0 2.89-1.2938 2.89-2.8898s-1.294-2.8898-2.89-2.8898-2.89 1.2938-2.89 2.8898 1.294 2.8898 2.89 2.8898Z" opacity=".99"/>
    <path fill="#FCFFE0" fill-opacity=".63109" d="M292.124 66.8337c.99 0 1.792-.8024 1.792-1.7922s-.802-1.7922-1.792-1.7922-1.792.8024-1.792 1.7922.802 1.7922 1.792 1.7922Z" opacity=".99"/>
    <path fill="#FCFFE0" fill-opacity=".338747" d="M262.619 76.5182c1.596 0 2.89-1.2938 2.89-2.8898s-1.294-2.8898-2.89-2.8898-2.89 1.2938-2.89 2.8898 1.294 2.8898 2.89 2.8898Zm100.588 34.7988c2.416 0 4.375-1.958 4.375-4.374 0-2.416-1.959-4.375-4.375-4.375s-4.374 1.959-4.374 4.375 1.958 4.374 4.374 4.374Zm-63.916-69.5981c.989 0 1.792-.8024 1.792-1.7922s-.803-1.7922-1.792-1.7922c-.99 0-1.793.8024-1.793 1.7922s.803 1.7922 1.793 1.7922ZM24.5409 23.2963c-1.9471-3.1782-6.102-4.1761-9.2801-2.2289-3.1782 1.9471-4.1761 6.1019-2.2289 9.2801 1.9471 3.1781 6.1019 4.176 9.2801 2.2289 3.1781-1.9471 4.176-6.102 2.2289-9.2801Z" opacity=".99"/>
    <path fill="#FCFFE0" fill-opacity=".63109" d="M38.8479 34.8926c-.623-1.0169-1.9524-1.3362-2.9693-.7132-1.0169.623-1.3362 1.9524-.7132 2.9693.623 1.0169 1.9524 1.3362 2.9693.7132 1.0169-.623 1.3362-1.9524.7132-2.9693Zm.0457-21.6407c-.517-.844-1.6204-1.109-2.4644-.592-.844.5171-1.109 1.6205-.5919 2.4645.517.844 1.6204 1.109 2.4644.5919.844-.5171 1.109-1.6204.5919-2.4644Z" opacity=".99"/>
    <path fill="#FCFFE0" fill-opacity=".475638" d="M52.1828 67.0855c-.8337-1.3609-2.6129-1.7882-3.9737-.9544-1.3609.8337-1.7882 2.6129-.9545 3.9737.8338 1.3609 2.6129 1.7882 3.9738.9544 1.3609-.8337 1.7882-2.6128.9544-3.9737Z" opacity=".99"/>
    <path fill="#FCFFE0" fill-opacity=".63109" d="M35.8355 55.7514c-.4983-.8133-1.5614-1.0686-2.3746-.5704-.8133.4983-1.0686 1.5614-.5704 2.3746.4983.8133 1.5614 1.0686 2.3746.5704.8133-.4983 1.0686-1.5614.5704-2.3746Z" opacity=".99"/>
    <path fill="#FCFFE0" fill-opacity=".475638" d="M69.3905 62.3039c-.3688-.6021-1.1559-.7911-1.758-.4222-.602.3688-.7911 1.1559-.4222 1.758.3688.602 1.1559.7911 1.758.4222.602-.3689.7911-1.1559.4222-1.758Z" opacity=".535"/>
    <path fill="#FCFFE0" fill-opacity=".338747" d="M171.962 90.7181c-.988-.4817-2.18-.0711-2.662.9171-.481.9881-.071 2.1797.917 2.6613.989.4817 2.18.0711 2.662-.917.481-.9882.071-2.1797-.917-2.6614Z" opacity=".99"/>
    <path fill="#FCFFE0" fill-opacity=".475638" d="M75.2589 55.1798c-.3562-.5813-1.1162-.7639-1.6975-.4077-.5814.3562-.7639 1.1161-.4077 1.6975.3562.5813 1.1161.7639 1.6975.4077.5813-.3562.7639-1.1162.4077-1.6975Z" opacity=".99"/>
    <path fill="#FCFFE0" fill-opacity=".849188" d="M3.68197 36.4705c.17859 1.6545 1.6647 2.851 3.31926 2.6724 1.65456-.1786 2.85105-1.6646 2.67245-3.3192-.17859-1.6545-1.66464-2.851-3.3192-2.6724-1.65456.1785-2.85111 1.6646-2.67251 3.3192Z" opacity=".99"/>
    <path fill="#FCFFE0" fill-opacity=".241299" d="M217.606 65.6036c.687.8582 1.94.9969 2.798.3099.858-.687.997-1.9397.31-2.7978-.687-.8582-1.94-.9969-2.798-.3099-.858.687-.997 1.9396-.31 2.7978Z" opacity=".99"/>
    <path fill="#FCFFE0" fill-opacity=".241299" d="M223.546 69.963c.426.5322 1.202.6183 1.735.1922.532-.4261.618-1.2029.192-1.7352-.426-.5322-1.203-.6182-1.735-.1921-.533.426-.619 1.2029-.192 1.7351Z" opacity=".516"/>
    <path fill="#FCFFE0" fill-opacity=".241299" d="M204.067 77.4043c1.04 1.2991 2.936 1.5091 4.236.4691 1.299-1.04 1.509-2.9363.469-4.2355-1.04-1.2991-2.937-1.5092-4.236-.4691-1.299 1.04-1.509 2.9363-.469 4.2355Z" opacity=".99"/>
    <path fill="#FCFFE0" fill-opacity=".475638" d="M198.773 95.7342c-.988-.4816-2.179-.0711-2.661.9171-.482.9881-.071 2.1797.917 2.6614.988.4816 2.18.071 2.661-.9171.482-.9882.072-2.1797-.917-2.6614Z" opacity=".99"/>
    <path fill="#FCFFE0" fill-opacity=".63109" d="M192.877 81.874c-.613-.2987-1.352-.0441-1.651.5688-.298.6128-.044 1.3518.569 1.6505.613.2987 1.352.0441 1.651-.5687.298-.6129.044-1.3518-.569-1.6506Z" opacity=".99"/>
    <path fill="#FCFFE0" fill-opacity=".394432" d="M138.147 29.9438c-1.435-.6993-3.165-.1033-3.864 1.3314-.7 1.4346-.103 3.1645 1.331 3.8638 1.435.6992 3.165.1032 3.864-1.3314.699-1.4347.103-3.1646-1.331-3.8638Z" opacity=".99"/>
    <path fill="#FCFFE0" fill-opacity=".582367" d="M250.287 84.4782c.073.6779.682 1.1681 1.36 1.0949.678-.0732 1.168-.682 1.095-1.3598-.074-.6778-.682-1.168-1.36-1.0949-.678.0732-1.168.682-1.095 1.3598Z" opacity=".99"/>
    <path fill="#FCFFE0" fill-opacity=".241299" d="M239.845 62.3957c-.665.8751-.495 2.1239.38 2.7891s2.124.4951 2.789-.3801.495-2.1239-.38-2.7891c-.875-.6653-2.124-.4951-2.789.3801Zm-2.784 6.8217c-.412.5427-.307 1.3172.236 1.7297.543.4126 1.317.3071 1.73-.2357.413-.5428.307-1.3172-.236-1.7298-.543-.4125-1.317-.307-1.73.2358Z" opacity=".99"/>
    <path fill="#FCFFE0" fill-opacity=".63109" d="M337.435 125.985c.267-1.718-.91-3.327-2.628-3.594-1.718-.267-3.327.909-3.594 2.627-.267 1.718.91 3.327 2.628 3.594 1.718.267 3.327-.909 3.594-2.627Zm-67.079-75.9017c.152-.9781-.518-1.8941-1.496-2.0461-.978-.1519-1.894.5178-2.046 1.4959-.152.9781.518 1.8941 1.496 2.0461.978.1519 1.894-.5178 2.046-1.4959Z" opacity=".99"/>
    <path fill="#FCFFE0" fill-opacity=".262181" d="M354.497 13.4158c.365-2.3526-1.246-4.55609-3.598-4.92158-2.353-.36548-4.557 1.24542-4.922 3.59808-.366 2.3526 1.245 4.5561 3.598 4.9215 2.353.3655 4.556-1.2454 4.922-3.598Z" opacity=".677"/>
    <path fill="#FCFFE0" fill-opacity=".338747" d="M12.4386 63.145c.152-.9781-.5177-1.8941-1.4958-2.0461-.97809-.1519-1.89415.5178-2.0461 1.4959-.15194.9781.51776 1.8941 1.4958 2.0461.9781.1519 1.8942-.5178 2.0461-1.4959Z" opacity=".99"/>
    <path fill="#FCFFE0" fill-opacity=".392111" d="M54.0012 40.5698c.9721-.4202 1.4195-1.5489.9992-2.521-.4202-.9721-1.549-1.4195-2.5211-.9992-.9721.4202-1.4194 1.5489-.9992 2.521.4203.9721 1.549 1.4195 2.5211.9992Z" opacity=".495"/>
    <path fill="#FCFFE0" fill-opacity=".338747" d="M15.2163 54.6512c1.009-.4362 1.4733-1.6079 1.0371-2.6169-.4362-1.009-1.6078-1.4734-2.6168-1.0372-1.0091.4362-1.4734 1.6078-1.0372 2.6169.4362 1.009 1.6078 1.4734 2.6169 1.0372Z" opacity=".99"/>
    <path fill="#FCFFE0" fill-opacity=".475638" d="M40.3775 50.6096c.6258-.2706.9138-.9972.6432-1.623-.2705-.6258-.9971-.9138-1.6229-.6432-.6258.2705-.9138.9971-.6432 1.6229.2705.6258.9971.9138 1.6229.6433Z" opacity=".99"/>
    <path fill="#FCFFE0" fill-opacity=".241299" d="M118.557 64.678c.004-1.0993-.885-1.9932-1.984-1.9966-1.099-.0034-1.993.885-1.996 1.9843-.004 1.0993.885 1.9932 1.984 1.9966 1.099.0034 1.993-.885 1.996-1.9843Z" opacity=".99"/>
    <path fill="#FCFFE0" fill-opacity=".241299" d="M116.667 57.557c.002-.6817-.549-1.2361-1.23-1.2382-.682-.0021-1.237.5489-1.239 1.2306-.002.6818.549 1.2362 1.231 1.2383.682.0021 1.236-.5489 1.238-1.2307Z" opacity=".516"/>
    <path fill="#FCFFE0" fill-opacity=".241299" d="M110.923 9.38235c.006-1.66416-1.339-3.01739-3.004-3.02253-1.664-.00514-3.017 1.33977-3.022 3.00393-.005 1.66415 1.34 3.01735 3.004 3.02255 1.664.0051 3.017-1.3398 3.022-3.00395ZM99.2272 53.2241c1.0668-.2641 1.7178-1.3433 1.4538-2.4104-.264-1.0671-1.3434-1.718-2.4104-1.4538-1.0671.2641-1.718 1.3433-1.4539 2.4104.2642 1.0671 1.3434 1.718 2.4105 1.4538Zm80.8238 40.7161c.662-.1638 1.065-.8331.902-1.4949-.164-.6618-.834-1.0655-1.495-.9017-.662.1639-1.066.8332-.902 1.495.164.6617.833 1.0654 1.495.9016Zm185.06-84.53312c.857.68792 2.11.55042 2.798-.30705.688-.85746.55-2.11024-.307-2.79812-.858-.68789-2.11-.55042-2.798.30704-.688.85747-.551 2.11024.307 2.79813Zm5.241 8.76482c.532.4266 1.309.3413 1.736-.1905.426-.5317.341-1.3087-.191-1.7353-.531-.4266-1.308-.3414-1.735.1904-.427.5318-.341 1.3087.19 1.7354Z" opacity=".99"/>
  </g>
  <defs>
    <linearGradient id="b" x1="332.992" x2="338.932" y1="116.736" y2="31.5131" gradientUnits="userSpaceOnUse">
      <stop stop-color="#FFFDFD"/>
      <stop offset="1" stop-color="#FEFBF9" stop-opacity="0"/>
    </linearGradient>
    <linearGradient id="c" x1="339.021" x2="335.877" y1="62.0516" y2="73.3047" gradientUnits="userSpaceOnUse">
      <stop stop-color="#FCFFE0"/>
      <stop offset="1" stop-color="#FCFFE0" stop-opacity="0"/>
    </linearGradient>
    <linearGradient id="d" x1="319.938" x2="315.213" y1="57.1212" y2="65.8465" gradientUnits="userSpaceOnUse">
      <stop stop-color="#FCFFE0"/>
      <stop offset="1" stop-color="#FCFFE0" stop-opacity="0"/>
    </linearGradient>
    <linearGradient id="e" x1="369.791" x2="356.787" y1="53.7429" y2="55.9764" gradientUnits="userSpaceOnUse">
      <stop stop-color="#FCFFE0"/>
      <stop offset="1" stop-color="#FCFFE0" stop-opacity="0"/>
    </linearGradient>
    <linearGradient id="f" x1="359.108" x2="350.356" y1="19.8686" y2="55.2592" gradientUnits="userSpaceOnUse">
      <stop stop-color="#FCFFE0"/>
      <stop offset="1" stop-color="#FCFFE0" stop-opacity="0"/>
    </linearGradient>
    <linearGradient id="g" x1="365.865" x2="359.314" y1="34.2036" y2="42.1763" gradientUnits="userSpaceOnUse">
      <stop stop-color="#FCFFE0"/>
      <stop offset="1" stop-color="#FCFFE0" stop-opacity="0"/>
    </linearGradient>
    <linearGradient id="h" x1="326.191" x2="337.655" y1="16.379" y2="38.0334" gradientUnits="userSpaceOnUse">
      <stop stop-color="#FCFFE0"/>
      <stop offset="1" stop-color="#FCFFE0" stop-opacity="0"/>
    </linearGradient>
    <linearGradient id="i" x1="142.246" x2="51.6004" y1="248.144" y2="84.9298" gradientUnits="userSpaceOnUse">
      <stop stop-color="#FFFDFD"/>
      <stop offset="1" stop-color="#FEFBF9" stop-opacity="0"/>
    </linearGradient>
    <linearGradient id="j" x1="183.695" x2="182.662" y1="274.485" y2="146.135" gradientUnits="userSpaceOnUse">
      <stop stop-color="#FFFDFD"/>
      <stop offset="1" stop-color="#FEFBF9" stop-opacity="0"/>
    </linearGradient>
    <linearGradient id="k" x1="183.695" x2="182.662" y1="274.485" y2="146.135" gradientUnits="userSpaceOnUse">
      <stop stop-color="#FFFDFD"/>
      <stop offset="1" stop-color="#FEFBF9" stop-opacity="0"/>
    </linearGradient>
    <linearGradient id="l" x1="176.067" x2="66.8433" y1="243.27" y2="80.0601" gradientUnits="userSpaceOnUse">
      <stop stop-color="#6D9700" stop-opacity=".369"/>
      <stop offset="1" stop-color="#6D9700" stop-opacity="0"/>
    </linearGradient>
    <linearGradient id="m" x1="178.973" x2="115.836" y1="215.531" y2="106.311" gradientUnits="userSpaceOnUse">
      <stop stop-color="#6D9700" stop-opacity=".369"/>
      <stop offset="1" stop-color="#6D9700" stop-opacity="0"/>
    </linearGradient>
    <linearGradient id="n" x1="176.067" x2="66.8433" y1="243.27" y2="80.0601" gradientUnits="userSpaceOnUse">
      <stop stop-color="#6D9700" stop-opacity=".369"/>
      <stop offset="1" stop-color="#6D9700" stop-opacity="0"/>
    </linearGradient>
    <linearGradient id="o" x1="176.067" x2="66.8433" y1="243.27" y2="80.06" gradientUnits="userSpaceOnUse">
      <stop stop-color="#6D9700" stop-opacity=".369"/>
      <stop offset="1" stop-color="#6D9700" stop-opacity="0"/>
    </linearGradient>
    <clipPath id="a">
      <path fill="#fff" d="M0 .64624h384v432H0z"/>
    </clipPath>
  </defs>
</svg>
