<svg xmlns="http://www.w3.org/2000/svg" fill="none" viewBox="0 0 384 433">
  <g clip-path="url(#a)">
    <path fill="#F66739" d="M218.272 367.366c48.661 0 88.109-2.657 88.109-5.934 0-3.278-39.448-5.935-88.109-5.935-48.662 0-88.11 2.657-88.11 5.935 0 3.277 39.448 5.934 88.11 5.934Z"/>
    <path fill="#FF8443" d="m-2.27478 436.817-.8739-90.538H162.352l16.045 7.141h85.131l9.384-4.176h101.843l-9.293-7.164h-38.28l21.201-4.379 41.15.045-.036 99.071H-2.27478Z"/>
    <path fill="#EF5A00" d="M-3.40692 436.817H389.497l.019-50.751-222.585 1.721-36.306-.258-11.978 3.835-67.8444-.183-22.821-6.391-30.36424-1.461 6.58337-4.018 50.49947.411 21.7413-8.537 51.4425.046 41.306-1.233-32.406-4.868-85.2534-2.07-54.64459-.913-.29293 74.67Z"/>
    <path fill="#E53C02" d="M43.7076 418.009c20.3723 0 36.8873-2.575 36.8873-5.752 0-3.177-16.515-5.752-36.8873-5.752-20.3723 0-36.88729 2.575-36.88729 5.752 0 3.177 16.51499 5.752 36.88729 5.752Z" opacity=".99"/>
    <path fill="#E53D02" d="M91.2777 406.139c12.7073 0 23.0093-1.839 23.0093-4.108 0-2.27-10.302-4.109-23.0093-4.109-12.7075 0-23.009 1.839-23.009 4.109 0 2.269 10.3015 4.108 23.009 4.108Zm143.3493 25.84c39.333 0 71.218-7.195 71.218-16.07s-31.885-16.07-71.218-16.07-71.218 7.195-71.218 16.07 31.885 16.07 71.218 16.07Z" opacity=".99"/>
    <path fill="#CE3602" d="M248.87 411.07c9.481 0 17.166-1.308 17.166-2.922s-7.685-2.922-17.166-2.922c-9.48 0-17.165 1.308-17.165 2.922s7.685 2.922 17.165 2.922Z" opacity=".99"/>
    <path fill="#BA3807" d="M370.318 387.483H209.111l6.041-7.185 13.468-6.667 7.333 9.329 34.436 2.23 19.835-24.815 12.094-8.909 13.593-2.602 4.257 18.389 5.825 6.553-.399-16.473 17.075-.823 12.105 20.401 11.261 1.834 3.542 5.064.741 3.674ZM30.651 365.874l77.609.548-7.407-8.85L79.69 344.41l-14.5256 6.124-7.3044-13.513-6.2088 1.644-9.1305 18.991-6.2088 2.557-5.6609 5.661Z"/>
    <path fill="#DB501C" d="m99.4988 364.066 5.6982 1.064-4.344-7.558-21.1631-13.162-12.2968 9.353-9.5332-16.742-6.2087 1.644 7.8854 7.559 4.0118 10.916 9.9496-6.018 21.5711 6.637 4.4297 6.307Z"/>
  </g>
  <defs>
    <clipPath id="a">
      <path fill="#fff" d="M0 .64624h384v432H0z"/>
    </clipPath>
  </defs>
</svg>
