<svg xmlns="http://www.w3.org/2000/svg" fill="none" viewBox="0 0 24 24"><g clip-path="url(#a)"><path fill="#000" d="M12 0C5.37876 0 0 5.37876 0 12c0 6.6212 5.37876 12 12 12 6.6212 0 12-5.3788 12-12 0-6.62124-5.3788-12-12-12Zm0 1.04348c6.0573 0 10.9565 4.89922 10.9565 10.95652S18.0573 22.9565 12 22.9565 1.04348 18.0573 1.04348 12 5.9427 1.04348 12 1.04348ZM7.30435 5.21739c-.85827 0-1.56522.70695-1.56522 1.56522 0 .85826.70695 1.56522 1.56522 1.56522.85826 0 1.56522-.70696 1.56522-1.56522 0-.85827-.70696-1.56522-1.56522-1.56522Zm0 1.04348c.29433 0 .52174.22741.52174.52174s-.22741.52174-.52174.52174-.52174-.22741-.52174-.52174.22741-.52174.52174-.52174Zm-1.04348 2.6087c-.13837.00001-.27107.05498-.36891.15282-.09784.09785-.15282.23054-.15283.36891v7.8261c.00001.1384.05499.2711.15283.3689s.23054.1528.36891.1528h2.08696c.13837 0 .27106-.055.36891-.1528.09784-.0978.15281-.2305.15283-.3689V9.3913c-.00002-.13837-.05499-.27106-.15283-.36891-.09785-.09784-.23054-.15281-.36891-.15282H6.26087Zm4.17393 0c-.1384.00001-.2711.05498-.3689.15282-.09787.09785-.15284.23054-.15286.36891v7.8261c.00002.1384.05499.2711.15286.3689.0978.0978.2305.1528.3689.1528h2.0869c.1384 0 .2711-.055.3689-.1528.0979-.0978.1529-.2305.1529-.3689v-3.9131c0-.7197.5846-1.3043 1.3043-1.3043.7198 0 1.3044.5846 1.3044 1.3043v3.9131c0 .1384.055.2711.1528.3689s.2305.1528.3689.1528h2.087c.1383 0 .271-.055.3689-.1528.0978-.0978.1528-.2305.1528-.3689v-4.4348c0-2.155-1.758-3.91303-3.913-3.91303-.6712 0-1.2732.21712-1.8261.51664-.0014-.13749-.0569-.26888-.1546-.36562-.0977-.09674-.2297-.15102-.3672-.15102h-2.0869ZM6.78261 9.91304h1.04348v6.78266H6.78261V9.91304Zm4.17389 0H12v.42596c0 .1023.0301.2024.0866.2877.0564.0854.1367.1523.2309.1923.0941.0401.198.0516.2986.0331.1007-.0185.1936-.0662.2674-.1371.5169-.4966 1.2122-.80196 1.9861-.80196 1.5911 0 2.8695 1.27846 2.8695 2.86956v3.9131h-1.0434v-3.3914c0-1.2889-1.0589-2.3478-2.3479-2.3478-1.2889 0-2.3478 1.0589-2.3478 2.3478v3.3914h-1.0435V9.91304Z"/></g><defs><clipPath id="a"><path fill="#fff" d="M0 0h24v24H0z"/></clipPath></defs></svg>