<svg xmlns="http://www.w3.org/2000/svg" fill="none" viewBox="0 0 384 433">
  <g clip-path="url(#a)">
    <path fill="#FFB682" d="m-2.04968 326.174-1.13159-26.989H189.047l-5.65 3.262h-32.899l10.348 5.975h52.157L225.33 297.1h31.73l132.467 1.679-.192 27.395H-2.04968Z"/>
    <path fill="#F47854" d="M433.744 305.263H226.031l2.992-5.133c21.57-1.346 19.993-3.619 32.774-25.245l9.274-1.572 4.083 22.891 17.758.79 32.157-31.955 11.731-4.389 3.57 6.977 13.701-11.987 6.643-17.929 7.455-4.358 6.257-10.89 13.514-3.984 14.549 44.362 7.213.822 19.339 29.825 4.703 11.775Z"/>
    <path fill="#FFCC6C" d="m374.426 222.463 7.253-.242-2.539 3.462-4.154 3.398-2.475 6.884-5.315 1.397-7.834 19.732 3.4 3.268 6.241-.605-3.849 12.378-6.562 1.209-5.51-12.959-6.5 16.459-9.219 8.938-3.336-19.573-10.083 13.031-21.997 13.817-9.035 3.937 32.157-31.955 11.731-4.389 2.204 13.932 1.366-6.955 13.701-11.987 6.643-17.929 7.078-1.876 6.634-13.372Z"/>
  </g>
  <defs>
    <clipPath id="a">
      <path fill="#fff" d="M0 .64624h384v432H0z"/>
    </clipPath>
  </defs>
</svg>
