<svg xmlns="http://www.w3.org/2000/svg" fill="none" viewBox="0 0 384 433">
  <g clip-path="url(#a)">
    <path fill="#FFA377" d="m-3.40698 305.262 47.30958 11.543 209.6464 3.056 8.982-7.331 12.557-.925 100.808 1.514 8.142 7.525 5.315-.779v116.952H-3.40698V305.262Z"/>
    <path fill="#FF8443" d="M69.2615 343.81c27.079 0 49.0305-1.186 49.0305-2.648 0-1.462-21.9515-2.648-49.0305-2.648-27.079 0-49.0309 1.186-49.0309 2.648 0 1.462 21.9519 2.648 49.0309 2.648Z" opacity=".99"/>
    <path fill="#F6844B" d="M274.242 331.666c20.221 0 36.613-.981 36.613-2.191s-16.392-2.192-36.613-2.192-36.614.982-36.614 2.192c0 1.21 16.393 2.191 36.614 2.191Z" opacity=".99"/>
    <path fill="#FF8443" d="M220.919 340.34c25.062 0 45.379-.858 45.379-1.917 0-1.059-20.317-1.918-45.379-1.918-25.061 0-45.378.859-45.378 1.918s20.317 1.917 45.378 1.917Zm37.841 7.444c16.49 0 29.857-.572 29.857-1.278 0-.706-13.367-1.279-29.857-1.279-16.489 0-29.857.573-29.857 1.279s13.368 1.278 29.857 1.278Z" opacity=".99"/>
    <path fill="#DB501C" d="M-58.5725 335.29H215.192l-22.329-21.431-17.822-2.805-3.823 5.696-26.81-40.851-19.261-9.512.172 13.377-5.279 3.53-11.556-23.283-11.9673-9.621-16.439-21.384-10.6939.659 4.0643 21.872-6.6547-3.528-14.6832-35.415-13.8928 12.981-12.2549 44.587-5.7739 2.197-3.224-8.208L.490919 281.726l-3.672229 17.459-3.57933-8.099-12.38426 1.479-18.3296 32.207-9.9915.916-11.685 7.468.5785 2.134Z"/>
    <path fill="#FBC56D" d="m92.4558 306.704 11.7562-2.932 5.029-10.52 11.944-3.773-1.145-6.185-11.556-23.283-11.9672-9.621-16.4389-21.385-7.142.246 19.4068 28.067 6.601 11.269 2.6083 12.532-6.6856 9.795-6.5019-11.593-7.6881-2.021-6.7707-19.385-7.1121-9.906-14.6833-35.415-7.8527 14.876 21.8184 40.735-15.6205-3.152 4.8169 19.035 10.4894 13.702 1.518-18.266 17.558 10.662-2.4585 11.539 1.6908 18.959 8.3857-13.98Zm56.7102 2.492 6.44 26.787 4.091-19.009 18.183 18.836 14.016.038 23.296-.558-22.329-21.43-13.482-2.295-1.787 15.034-33.186-50.7-19.261-9.512 9.317 20.83 14.241 6.909.461 15.07ZM16.9646 264.151l6.4839 16.44 7.2704-5.819 3.7963 18.865-5.6354 6.814-16.4767-24.544 4.5615-11.756Z"/>
  </g>
  <defs>
    <clipPath id="a">
      <path fill="#fff" d="M0 .64624h384v432H0z"/>
    </clipPath>
  </defs>
</svg>
